# xmcd CD database file
#
# Track frame offsets:
#	150
#	14235
#	27597
#	42785
#	53407
#	64257
#	85235
#	96147
#	112895
#	124010
#	145695
#	155257
#	168597
#	187670
#	200547
#	215047
#	226770
#	243072
#	254925
#	267735
#
# Disc length: 3890 seconds
#
# Revision: 3
# Processed by: cddbd v1.5.1PL0 Copyright (c) Steve Scherf et al.
# Submitted via: CDex 1.51
#
DISCID=190f3014
DTITLE=Various Artist - Living The Blues - 1965-1969 Blues CLASSICS
DYEAR=1997
DGENRE=Blues
TTITLE0=Lowell Fulson - Tramp
TTITLE1=Little Milton - Who's Cheating Who?
TTITLE2=Albert King - Laundromat Blues
TTITLE3=Bobby Bland - These Hands (Small But Mighty)
TTITLE4=Junior Wells - Messin' with the Kid
TTITLE5=Magic Sam - Feel So Good (I Wanna Boogie)
TTITLE6=Elmore James - Madison Blues
TTITLE7=B. B. King - Why I Sing the Blues
TTITLE8=Jimmy McCracklin - Think
TTITLE9=Big Mama Thornton - Ball and Chain
TTITLE10=Slim Harpo - Te-Ni-Nee-Ni-Nu
TTITLE11=Carter Brothers, The - Southern Country Boy
TTITLE12=Buddy Guy - My Time after Awhile
TTITLE13=Howlin' Wolf - Killing Floor
TTITLE14=Koko Taylor - 29 Ways (To My Baby's Door)
TTITLE15=B. B. King - Paying the Cost to Be the Boss
TTITLE16=John Lee Hooker - It Serves Me Right
TTITLE17=Clifton Chenier - Black Gal
TTITLE18=G. L. Crockett - It's a Man Down There
TTITLE19=Albert Collins - Conversation with Collins
EXTD=YEAR: 1997
EXTT0=
EXTT1=
EXTT2=
EXTT3=
EXTT4=
EXTT5=
EXTT6=
EXTT7=
EXTT8=
EXTT9=
EXTT10=
EXTT11=
EXTT12=
EXTT13=
EXTT14=
EXTT15=
EXTT16=
EXTT17=
EXTT18=
EXTT19=
PLAYORDER=
